<svg id="Layer_1" data-name="Layer 1" xmlns="http://www.w3.org/2000/svg" viewBox="0 0 1000 1000"><defs><style>.cls-1{fill:#f26522;}</style></defs><polygon class="cls-1" points="440.53 315.77 503.35 423.41 452.36 219.28 416.97 275.89 361.44 149.1 315.19 224.86 416.97 362.82 440.53 315.77"/><path d="M694.68,404.66c-74.21,0-136.59,51.59-153.18,120.78a190.32,190.32,0,0,0-93.32,1.47C432.12,457,369.38,404.66,294.65,404.66c-86.85,0-157.51,70.66-157.51,157.51S207.8,719.68,294.65,719.68,452.16,649,452.16,562.17c0-2.9-.08-5.79-.24-8.65a164,164,0,0,1,85.59-1.63c-.22,3.4-.34,6.83-.34,10.28,0,86.85,70.66,157.51,157.51,157.51S852.19,649,852.19,562.17,781.53,404.66,694.68,404.66Zm-400,288.39A130.88,130.88,0,1,1,425.53,562.17,131,131,0,0,1,294.65,693.05Zm400,0A130.88,130.88,0,1,1,825.56,562.17,131,131,0,0,1,694.68,693.05Z"/><path d="M192.76,607.45s-20-77.83,27-125.49C219.76,482,157.74,527.92,192.76,607.45Z"/><path d="M593.27,607.45s-20-77.83,27-125.49C620.26,482,558.24,527.92,593.27,607.45Z"/></svg>